<?xml version="1.0" encoding="UTF-8" standalone="no"?>
<!-- Created with Inkscape (http://www.inkscape.org/) -->

<svg
   xmlns:dc="http://purl.org/dc/elements/1.1/"
   xmlns:cc="http://creativecommons.org/ns#"
   xmlns:rdf="http://www.w3.org/1999/02/22-rdf-syntax-ns#"
   xmlns:svg="http://www.w3.org/2000/svg"
   xmlns="http://www.w3.org/2000/svg"
   xmlns:sodipodi="http://sodipodi.sourceforge.net/DTD/sodipodi-0.dtd"
   xmlns:inkscape="http://www.inkscape.org/namespaces/inkscape"
   width="16"
   height="16"
   viewBox="0 0 16 16"
   id="svg2"
   version="1.1"
   inkscape:version="0.91 r13725"
   sodipodi:docname="ship_core_tier1.svg"
   inkscape:export-filename="C:\kajacx\programming\eclipse\my-workplace\Forge\src\main\resources\assets\zetapower\textures\blocks\ship_core_tier1.png"
   inkscape:export-xdpi="90"
   inkscape:export-ydpi="90">
  <defs
     id="defs4" />
  <sodipodi:namedview
     id="base"
     pagecolor="#ffffff"
     bordercolor="#666666"
     borderopacity="1.0"
     inkscape:pageopacity="0.0"
     inkscape:pageshadow="2"
     inkscape:zoom="22.4"
     inkscape:cx="6.1222137"
     inkscape:cy="4.732407"
     inkscape:document-units="px"
     inkscape:current-layer="layer1"
     showgrid="false"
     units="px"
     inkscape:window-width="1920"
     inkscape:window-height="1017"
     inkscape:window-x="-8"
     inkscape:window-y="-8"
     inkscape:window-maximized="1" />
  <metadata
     id="metadata7">
    <rdf:RDF>
      <cc:Work
         rdf:about="">
        <dc:format>image/svg+xml</dc:format>
        <dc:type
           rdf:resource="http://purl.org/dc/dcmitype/StillImage" />
        <dc:title></dc:title>
      </cc:Work>
    </rdf:RDF>
  </metadata>
  <g
     inkscape:label="Layer 1"
     inkscape:groupmode="layer"
     id="layer1"
     transform="translate(0,-1036.3622)">
    <rect
       style="fill:#afd8d2;fill-opacity:1;stroke:none;stroke-width:1.5;stroke-miterlimit:4;stroke-dasharray:none;stroke-opacity:1"
       id="rect4136"
       width="16"
       height="16"
       x="0"
       y="1036.3623" />
    <path
       style="fill:#09ff3a;fill-opacity:1;fill-rule:evenodd;stroke:#208956;stroke-width:1px;stroke-linecap:butt;stroke-linejoin:miter;stroke-opacity:1"
       d="m -1.0267857,1046.4694 0,2.6785 c 3.1383648,-0.02 5.8418632,0.3479 4.6428572,4.1964 l 2.5892857,0.1336 c 0,0 0.1164949,-3.5809 1.0267857,-4.2857 0.9102908,-0.7048 1.5582373,-0.6648 2.5,0.045 0.9417631,0.7098 1.3392851,4.375 1.3392851,4.375 l 2.276786,0.045 c -0.456277,-3.648 1.008516,-5.2192 4.955358,-4.1071 l -0.04464,-2.7232 c 0,0 -5.386158,-0.1802 -6.339286,-1.3839 -0.953128,-1.2037 -0.833478,-1.6939 0.04464,-2.7233 0.878118,-1.0294 5.3125,-0.9374 5.3125,-0.9374 l 0.133932,-2.1875 c -3.768019,1.0936 -4.946423,-0.6984 -4.553573,-4.2412 l -2.723213,0.045 c 0,0 0.01543,4.0083 -1.0267861,4.8659 -1.0422204,0.8577 -2.0705958,0.8966 -3.125,0.045 -1.0544042,-0.8519 -0.9821458,-4.9106 -0.9821458,-4.9106 l -2.1875001,-0.09 c 0.278988,3.8708 -1.90994485,4.0398 -4.1964286,4.0624 l -0.2678571,2.5 c 0,0 3.8732066,-0.1992 4.8214286,0.8482 0.948222,1.0474 1.8538895,2.5648 0.2678571,3.5715 -1.5860324,1.0067 -2.96063344,0.2172 -4.4642857,0.1784 z"
       id="path4138"
       inkscape:connector-curvature="0"
       sodipodi:nodetypes="cccczzcccczzcccczzcccczzc" />
  </g>
</svg>
